#tb 0: 1/1000
0,          0,          0,        0,     1584, c7b0d91f362dff0a581434af6e902d43
0,         33,         33,        0,     1584, d8b016ef59c6bc193b29d1c714f342c1
0,         66,         66,        0,     1584, c520bd8d4b81aafc7687befff66c7396
0,        100,        100,        0,     1584, 92e81bbd3af675c9cdb1cb00d03dabe1
0,        133,        133,        0,     1584, a271db3defe5daa6d9e0a73a580f4f88
0,        166,        166,        0,     1584, 4077e857321e241bb98dfd89c0aca46f
0,        200,        200,        0,     1584, 0466e1453a94baf876e9f64b60235300
0,        233,        233,        0,     1584, 9d2cb9c7b180d44841e0e4d8a595d912
0,        266,        266,        0,     1584, 500f443eeb0ecef47c34d1e91f0df6ce
0,        300,        300,        0,     1584, 83354487982915c33b1c6243d80adaeb
